# xmcd
#
# Track frame offsets:
#	150
#	11441
#	23567
#	33412
#	42262
#	51913
#	64409
#	77085
#	87379
#	97626
#	110487
#
# Disc length: 1635 seconds
#
# Revision: 1
# Processed by: cddbd v1.5.1PL0 Copyright (c) Steve Scherf et al.
# Submitted via: audiograbber 1.82.01
#
DISCID=7e06610b
DTITLE=Lester Flatt - Rollin'
DYEAR=1976
DGENRE=Country
TTITLE0=Drink That Mash And Talk That Trash
TTITLE1=Daddy Sang Bass
TTITLE2=Yonder Stands Little Maggie
TTITLE3=Mocking Banjo
TTITLE4=Down The Road
TTITLE5=I'd Like To Have Papa Show Me Around
TTITLE6=The Sunny Side Of The Mountain
TTITLE7=Roll In My Sweet Baby's Arms
TTITLE8=Flatland Two Step
TTITLE9=We'll Meet Again Sweetheart
TTITLE10=I'm Gonna Sleep With One Eye Open
EXTD=
EXTT0=
EXTT1=
EXTT2=
EXTT3=
EXTT4=
EXTT5=
EXTT6=
EXTT7=
EXTT8=
EXTT9=
EXTT10=
PLAYORDER=
